<?xml version="1.0" encoding="iso-8859-1"?>
<!-- Generator: Adobe Illustrator 19.0.0, SVG Export Plug-In . SVG Version: 6.00 Build 0)  -->
<svg xmlns="http://www.w3.org/2000/svg" xmlns:xlink="http://www.w3.org/1999/xlink" version="1.1" id="Capa_1" x="0px" y="0px" viewBox="0 0 512 512" style="enable-background:new 0 0 512 512;" xml:space="preserve" width="512px" height="512px">
<g>
	<g>
		<path d="M482.21,111.566c-18.933-14.469-42.976-19.178-65.97-12.923l-87.908,23.919c-3.841-12.56-10.877-23.728-20.146-32.582    V70.548c0-8.997,7.319-16.316,16.316-16.316v-30c-25.539,0-46.316,20.777-46.316,46.316v1.79    c-7.019-2.158-14.468-3.326-22.186-3.326s-15.166,1.168-22.186,3.326v-1.79c0-25.539-20.777-46.316-46.316-46.316v30    c8.997,0,16.316,7.319,16.316,16.316V89.98c-9.27,8.854-16.305,20.023-20.146,32.582L95.76,98.643    c-22.993-6.258-47.038-1.546-65.97,12.923S0,148,0,171.828c0,23.879,10.896,45.872,29.893,60.34    c13.43,10.228,29.408,15.553,45.754,15.553c6.775,0,13.614-0.915,20.36-2.775l43.806-12.079    c-0.898,3.673-1.636,7.408-2.196,11.202c-4.806,32.56,3.656,64.813,23.828,90.82L241,437.45v50.318h30V437.45l79.555-102.561    c20.172-26.006,28.634-58.259,23.828-90.819c-0.56-3.794-1.299-7.529-2.196-11.203l43.806,12.079    c6.747,1.86,13.584,2.775,20.36,2.775c16.345,0,32.325-5.326,45.754-15.553C501.104,217.7,512,195.707,512,171.828    C512,148,501.142,126.035,482.21,111.566z M256,99.012c25.159,0,45.627,20.467,45.627,45.626c0,2.07-0.15,4.109-0.417,6.122    c-28.939-11.797-61.481-11.798-90.42,0c-0.267-2.012-0.417-4.052-0.417-6.122C210.373,119.479,230.841,99.012,256,99.012z     M204.052,188.461c15.536-11.043,33.742-16.564,51.948-16.564s36.412,5.521,51.948,16.564c2.437,1.732,4.766,3.573,6.992,5.504    H197.06C199.286,192.033,201.614,190.194,204.052,188.461z M337.444,223.966c3.189,6.948,5.494,14.351,6.844,22.086H167.711    c1.351-7.735,3.656-15.138,6.844-22.086H337.444z M154.737,197.633l-66.705,18.392c-13.917,3.837-28.481,1.021-39.964-7.724    C36.585,199.556,30,186.262,30,171.828c0-14.403,6.563-27.68,18.007-36.426c11.444-8.747,25.978-11.594,39.876-7.812l92.95,25.291    c0.501,4.552,1.408,9.055,2.713,13.434C171.971,175.103,162.276,185.695,154.737,197.633z M277.421,380.225L256,407.84    l-21.421-27.616L277.421,380.225L277.421,380.225z M300.691,350.225h-89.383l-17.132-22.086h123.647L300.691,350.225z     M337.902,298.138H174.097c-3.177-7.061-5.403-14.472-6.638-22.086H344.54C343.306,283.666,341.079,291.077,337.902,298.138z     M463.932,208.301c-11.483,8.744-26.049,11.562-39.964,7.724l-66.704-18.392c-7.539-11.938-17.234-22.53-28.809-31.318    c1.305-4.379,2.212-8.882,2.713-13.433l92.95-25.291c13.898-3.78,28.433-0.935,39.876,7.812    C475.437,144.148,482,157.425,482,171.828C482,186.262,475.414,199.556,463.932,208.301z" fill="#FFFFFF"/>
	</g>
</g>
<g>
</g>
<g>
</g>
<g>
</g>
<g>
</g>
<g>
</g>
<g>
</g>
<g>
</g>
<g>
</g>
<g>
</g>
<g>
</g>
<g>
</g>
<g>
</g>
<g>
</g>
<g>
</g>
<g>
</g>
</svg>
