<?xml version="1.0" encoding="iso-8859-1"?>
<!-- Generator: Adobe Illustrator 19.0.0, SVG Export Plug-In . SVG Version: 6.00 Build 0)  -->
<svg xmlns="http://www.w3.org/2000/svg" xmlns:xlink="http://www.w3.org/1999/xlink" version="1.1" id="Capa_1" x="0px" y="0px" viewBox="0 0 512 512" style="enable-background:new 0 0 512 512;" xml:space="preserve" width="512px" height="512px">
<g>
	<g>
		<path d="M272.129,178.244V93.691C272.129,42.03,230.101,0,178.437,0c-46.902,0-85.862,34.642-92.644,79.682L7.937,140.529    l76.81,60.029v9.1c0,95.838,64.64,176.86,152.61,201.768V512h30v-94.425c8.857,1.146,17.885,1.741,27.049,1.741    c5.908,0,11.755-0.259,17.541-0.74V512h30v-98.123c92.781-21.593,162.117-104.96,162.117-204.219v-11.2v-5.214v-15H272.129z     M84.746,162.484l-28.091-21.955l28.091-21.954V162.484z M294.403,389.316c-99.063,0-179.658-80.595-179.658-179.658V93.691    c0-35.119,28.572-63.691,63.692-63.691c35.119,0,63.691,28.572,63.691,63.691v99.553v5.214v9.786h0.365    c5.022,67.662,61.678,121.181,130.602,121.181c26.363,0,50.926-7.837,71.497-21.293    C412.449,356.992,357.134,389.316,294.403,389.316z M473.587,208.244c-4.938,51.098-48.12,91.181-100.491,91.181    c-52.371,0-95.553-40.083-100.491-91.181L473.587,208.244L473.587,208.244z" fill="#283618"/>
	</g>
</g>
<g>
	<g>
		<circle cx="178.439" cy="87.81" r="15" fill="#283618"/>
	</g>
</g>
<g>
</g>
<g>
</g>
<g>
</g>
<g>
</g>
<g>
</g>
<g>
</g>
<g>
</g>
<g>
</g>
<g>
</g>
<g>
</g>
<g>
</g>
<g>
</g>
<g>
</g>
<g>
</g>
<g>
</g>
</svg>
