<?xml version="1.0" encoding="iso-8859-1"?>
<!-- Generator: Adobe Illustrator 19.0.0, SVG Export Plug-In . SVG Version: 6.00 Build 0)  -->
<svg xmlns="http://www.w3.org/2000/svg" xmlns:xlink="http://www.w3.org/1999/xlink" version="1.1" id="Capa_1" x="0px" y="0px" viewBox="0 0 512 512" style="enable-background:new 0 0 512 512;" xml:space="preserve" width="512px" height="512px">
<g>
	<g>
		<path d="M117.625,175.082c-24.237,0-43.955,19.718-43.955,43.955s19.718,43.955,43.955,43.955s43.955-19.718,43.955-43.955    S141.862,175.082,117.625,175.082z M117.625,232.993c-7.695,0-13.955-6.26-13.955-13.955s6.26-13.955,13.955-13.955    s13.955,6.26,13.955,13.955S125.32,232.993,117.625,232.993z" fill="#FFFFFF"/>
	</g>
</g>
<g>
	<g>
		<path d="M512,219.037c0-64.859-52.767-117.625-117.625-117.625c-39.963,0-75.328,20.037-96.594,50.588    c-1.134-1.642-2.364-3.211-3.678-4.706L326.505,43.61l-28.635-8.948l-30.224,96.714c-3.742-0.882-7.637-1.364-11.645-1.364    s-7.903,0.481-11.645,1.364L214.13,34.662l-28.635,8.948l32.403,103.684c-1.314,1.495-2.545,3.064-3.678,4.706    c-21.267-30.551-56.632-50.588-96.594-50.588C52.767,101.412,0,154.178,0,219.037c0,44.231,25.071,84.296,63.187,104.28    c-12.664,16.512-19.642,36.783-19.642,58.167c0,52.853,42.999,95.853,95.853,95.853c28.659,0,54.417-12.647,71.997-32.649    c8.607,15.809,25.374,26.563,44.606,26.563s35.999-10.753,44.606-26.563c17.58,20.002,43.337,32.649,71.997,32.649    c52.854,0,95.853-43,95.853-95.853c0-21.384-6.978-41.655-19.642-58.167C486.929,303.335,512,263.27,512,219.037z M205.25,381.486    L205.25,381.486c-0.001,36.311-29.542,65.853-65.853,65.853c-36.312,0-65.853-29.542-65.853-65.853    c0-20.375,9.229-39.284,25.322-51.878l23.26-18.203l-28.42-8.042C56.197,292.746,30,258.072,30,219.037    c0-48.316,39.309-87.625,87.625-87.625c48.316,0,87.624,39.309,87.624,87.625h0.001V381.486z M276.75,420.503    c0,11.441-9.309,20.75-20.75,20.75c-11.441,0-20.75-9.309-20.75-20.75V180.764c0-11.442,9.309-20.75,20.75-20.75    s20.75,9.309,20.75,20.75V420.503z M418.293,303.361l-28.42,8.042l23.26,18.203c16.093,12.595,25.322,31.503,25.322,51.878    c0,36.311-29.541,65.853-65.853,65.853c-36.311,0-65.852-29.542-65.852-65.853h-0.001V219.037h0.001    c0-48.316,39.308-87.625,87.624-87.625c48.316,0,87.626,39.309,87.626,87.625C482,258.072,455.803,292.746,418.293,303.361z" fill="#FFFFFF"/>
	</g>
</g>
<g>
	<g>
		<path d="M394.375,175.082c-24.237,0-43.955,19.718-43.955,43.955s19.718,43.955,43.955,43.955    c24.237,0,43.955-19.718,43.955-43.955S418.612,175.082,394.375,175.082z M394.375,232.993c-7.695,0-13.955-6.26-13.955-13.955    s6.26-13.955,13.955-13.955c7.695,0,13.955,6.26,13.955,13.955S402.07,232.993,394.375,232.993z" fill="#FFFFFF"/>
	</g>
</g>
<g>
</g>
<g>
</g>
<g>
</g>
<g>
</g>
<g>
</g>
<g>
</g>
<g>
</g>
<g>
</g>
<g>
</g>
<g>
</g>
<g>
</g>
<g>
</g>
<g>
</g>
<g>
</g>
<g>
</g>
</svg>
