<?xml version="1.0"?>
<svg xmlns="http://www.w3.org/2000/svg" height="512px" viewBox="-61 0 512 512" width="512px"><path d="m390 196c0-108.074219-87.476562-196-195-196-1.734375 0-3.488281.0234375-5.210938.0664062-105.394531 2.7695318-189.789062 89.9492188-189.789062 195.9335938 0 80.226562 27.390625 93.617188 172.46875 286h-142.46875v30h330v-30h-142.46875c144.070312-191.027344 172.46875-206.042969 172.46875-286zm-195 266.050781c-145.007812-192.144531-165-198.3125-165-266.050781 0-89.957031 73.675781-166 165-166 90.980469 0 165 74.46875 165 166 0 67.824219-22.425781 77.144531-165 266.050781zm0 0" fill="#FFFFFF"/><path d="m195 61c-74.4375 0-135 60.5625-135 135s60.5625 135 135 135 135-60.5625 135-135-60.5625-135-135-135zm0 240c-2.140625 0-9.996094-4.667969-17.773438-25.414062-2.242187-5.976563-4.1875-12.566407-5.835937-19.597657h47.21875c-1.648437 7.03125-3.59375 13.621094-5.835937 19.597657-7.777344 20.746093-15.632813 25.414062-17.773438 25.414062zm-28.511719-75c-.972656-9.632812-1.488281-19.691406-1.488281-30s.515625-20.367188 1.488281-30h57.023438c.976562 9.632812 1.488281 19.691406 1.488281 30s-.511719 20.367188-1.488281 30zm28.511719-135c2.140625 0 9.996094 4.667969 17.773438 25.414062 2.242187 5.976563 4.1875 12.558594 5.835937 19.585938h-47.21875c1.648437-7.027344 3.59375-13.609375 5.835937-19.585938 7.777344-20.746093 15.632813-25.414062 17.773438-25.414062zm58.640625 75h41.984375c2.84375 9.511719 4.375 19.578125 4.375 30s-1.53125 20.488281-4.375 30h-41.984375c.890625-9.730469 1.359375-19.777344 1.359375-30s-.46875-20.269531-1.359375-30zm27.476563-30h-31.808594c-2.214844-10.90625-5.042969-21.050781-8.445313-30.121094-.691406-1.851562-1.402343-3.613281-2.121093-5.324218 17.082031 7.859374 31.703124 20.175781 42.375 35.445312zm-129.859376-35.441406c-.71875 1.707031-1.429687 3.46875-2.121093 5.324218-3.402344 9.066407-6.234375 19.210938-8.445313 30.117188h-31.808594c10.671876-15.269531 25.292969-27.585938 42.375-35.441406zm-56.882812 65.429687h41.984375c-.894531 9.730469-1.359375 19.789063-1.359375 30.011719s.464844 20.269531 1.359375 30h-41.984375c-2.839844-9.511719-4.375-19.578125-4.375-30s1.535156-20.5 4.375-30.011719zm14.507812 90.011719h31.808594c2.214844 10.90625 5.042969 21.050781 8.445313 30.121094.691406 1.851562 1.402343 3.613281 2.121093 5.324218-17.082031-7.859374-31.703124-20.175781-42.375-35.445312zm129.859376 35.445312c.71875-1.710937 1.425781-3.472656 2.121093-5.324218 3.402344-9.070313 6.230469-19.222656 8.445313-30.132813h31.808594c-10.671876 15.273438-25.292969 27.597657-42.375 35.457031zm0 0" fill="#FFFFFF"/></svg>
