<?xml version="1.0" encoding="iso-8859-1"?>
<!-- Generator: Adobe Illustrator 19.0.0, SVG Export Plug-In . SVG Version: 6.00 Build 0)  -->
<svg xmlns="http://www.w3.org/2000/svg" xmlns:xlink="http://www.w3.org/1999/xlink" version="1.1" id="Capa_1" x="0px" y="0px" viewBox="0 0 512 512" style="enable-background:new 0 0 512 512;" xml:space="preserve" width="512px" height="512px">
<g>
	<g>
		<path d="M416.401,152.039c-8.71-12.392-23.487-18.868-41.57-18.245c-1.822,0.054-3.108-0.05-3.985-0.177    c0.108-1.434,0.526-3.933,1.855-7.935l0.063-0.196c3.19-10.066,7.161-22.595,9.255-34.36c3.112-17.515-2.334-34.188-14.568-44.603    c-13.052-11.109-31.449-13.669-50.479-7.016c-3.442,1.202-5.287,1.516-6.122,1.593c-0.555-0.594-1.656-1.967-3.524-5.036    c-6.994-11.489-13.07-19.067-19.699-24.57C278.313,3.76,267.953,0,255.953,0c-11.997,0-22.355,3.76-31.667,11.494    c-6.638,5.514-12.714,13.092-19.702,24.572c-1.863,3.063-2.964,4.434-3.517,5.025c-0.833-0.075-2.679-0.386-6.128-1.585    l-0.196-0.066c-19.372-6.435-37.871-3.739-50.751,7.399c-12.104,10.466-17.243,26.608-14.101,44.285    c2.078,11.7,6.029,24.183,9.205,34.212l0.072,0.226c1.312,4.063,1.74,6.601,1.858,8.065c-0.87,0.121-2.129,0.213-3.888,0.168    c-17.962-0.769-32.688,5.623-41.454,17.984c-8.924,12.582-10.257,30.057-3.568,46.739c8.274,20.65,24.173,32.67,38.195,43.272    c0.719,0.544,1.495,1.123,2.314,1.735c2.722,2.033,9.331,6.97,13.594,11.181c-11.824,2.546-21.505,9.178-26.993,18.645    c-5.896,10.17-6.431,22.669-1.464,34.293c9.406,22.006,32.316,33.176,53.49,41.201c20.166,7.64,20.166,7.64,26.425,21.966    c10.118,23.15,24.643,37.188,43.29,41.927V512h30v-99.268c18.634-4.746,33.15-18.781,43.263-41.92    c6.26-14.326,6.26-14.326,26.429-21.967c21.171-8.026,44.08-19.198,53.484-41.201c4.966-11.622,4.432-24.121-1.465-34.292    c-5.488-9.467-15.168-16.099-26.991-18.645c4.266-4.215,10.886-9.159,13.611-11.194c0.812-0.605,1.58-1.18,2.294-1.72    c14.027-10.604,29.926-22.625,38.2-43.274C426.548,181.658,425.31,164.717,416.401,152.039z M391.945,187.361    c-5.171,12.906-15.956,21.061-28.446,30.503c-0.668,0.505-1.389,1.043-2.149,1.611c-14.057,10.497-26.847,21.079-28.927,35.077    c-1.032,6.946,0.539,13.383,4.545,18.614c4.488,5.861,11.555,9.508,20.438,10.545c4.501,0.524,7.898,2.233,9.321,4.687    c1.436,2.477,0.7,5.423-0.169,7.456c-5.013,11.729-22.156,19.488-36.528,24.938c-24.289,9.201-32.487,13.291-43.288,38.007    c-5.003,11.448-10.444,17.891-15.772,21.47V306.51l47.6-50.114l-21.752-20.66l-25.848,27.213v-54.282l47.6-50.114l-21.752-20.66    l-25.848,27.213v-48.754h-30v48.755l-25.849-27.214l-21.752,20.66l47.601,50.114v54.282l-25.849-27.214l-21.752,20.66    l47.601,50.114v73.776c-5.337-3.575-10.788-10.019-15.8-21.487c-10.799-24.717-18.998-28.807-43.285-38.007    c-14.376-5.449-31.521-13.208-36.533-24.937c-0.87-2.035-1.605-4.98-0.17-7.457c1.423-2.454,4.821-4.162,9.322-4.688    c11.213-1.308,17.298-6.45,20.428-10.534c3.953-5.159,5.572-11.771,4.558-18.624c-2.079-13.991-14.86-24.568-28.908-35.062    c-0.768-0.573-1.495-1.116-2.172-1.628c-12.487-9.441-23.271-17.595-28.444-30.506c-2.879-7.182-2.808-13.994,0.192-18.224    c3.089-4.356,9.072-5.4,14.1-5.4c0.578,0,1.145,0.014,1.692,0.038l0.236,0.009c13.475,0.382,23.36-3.499,29.391-11.538    c8.604-11.471,5.344-25.979,2.169-35.815l-0.047-0.146c-2.911-9.194-6.534-20.638-8.269-30.404    c-1.265-7.112,0.223-12.918,4.187-16.345c4.668-4.038,12.531-4.637,21.585-1.649c7.556,2.617,17.437,5.094,27.084,1.209    c8.522-3.43,13.653-10.404,17.928-17.429c5.115-8.405,9.323-13.836,13.242-17.091c3.91-3.248,7.531-4.572,12.499-4.572    c4.973,0,8.596,1.325,12.509,4.574c3.91,3.246,8.116,8.677,13.237,17.088c4.279,7.032,9.414,14.013,17.94,17.443    c9.711,3.905,19.65,1.369,27.228-1.277c8.711-3.044,16.413-2.481,21.138,1.539c4.091,3.482,5.723,9.501,4.479,16.507    c-1.743,9.792-5.364,21.234-8.285,30.45c-1.914,5.765-7.523,22.891,2.066,35.789c6.042,8.127,15.949,12.034,29.461,11.668    l0.104-0.004c5.404-0.18,12.581,0.609,16.027,5.512C394.779,173.448,394.812,180.204,391.945,187.361z" fill="##283618"/>
	</g>
</g>
<g>
</g>
<g>
</g>
<g>
</g>
<g>
</g>
<g>
</g>
<g>
</g>
<g>
</g>
<g>
</g>
<g>
</g>
<g>
</g>
<g>
</g>
<g>
</g>
<g>
</g>
<g>
</g>
<g>
</g>
</svg>
