<?xml version="1.0" encoding="iso-8859-1"?>
<!-- Generator: Adobe Illustrator 19.0.0, SVG Export Plug-In . SVG Version: 6.00 Build 0)  -->
<svg xmlns="http://www.w3.org/2000/svg" xmlns:xlink="http://www.w3.org/1999/xlink" version="1.1" id="Capa_1" x="0px" y="0px" viewBox="0 0 512 512" style="enable-background:new 0 0 512 512;" xml:space="preserve" width="512px" height="512px">
<g>
	<g>
		<path d="M466.889,271.323v-60.435C466.889,94.604,372.284,0,256,0S45.111,94.604,45.111,210.889v60.435h127.603v3.516    c0,34.991-5.585,69.574-16.6,102.789c-10.457,31.528-5.303,65.059,14.141,91.991c19.443,26.933,49.646,42.38,82.864,42.38    c33.219,0,63.422-15.447,82.865-42.381c19.443-26.933,24.598-60.463,14.141-91.991c-11.015-33.212-16.6-67.795-16.6-102.789    v-3.516H466.889z M382.129,81.363c12.943,12.606,24.016,27.124,32.743,43.102c-4.302,1.328-8.885,1.634-13.449,0.836    c-7.584-1.328-14.196-5.53-18.62-11.832C375.895,103.626,376.024,90.92,382.129,81.363z M129.871,81.363    c6.104,9.558,6.234,22.263-0.674,32.105c-4.424,6.303-11.036,10.505-18.62,11.833c-4.563,0.798-9.147,0.491-13.449-0.836    C105.855,108.487,116.928,93.969,129.871,81.363z M311.66,452.059C297.925,471.087,276.587,482,253.119,482    c-23.467,0-44.805-10.913-58.54-29.94c-13.736-19.027-17.377-42.714-9.99-64.988c12.027-36.267,18.125-74.026,18.125-112.232    v-3.516h100.812v3.516c-0.001,38.208,6.097,75.969,18.124,112.231C329.037,409.345,325.396,433.032,311.66,452.059z     M75.111,241.322v-30.433c0-20.606,3.472-40.415,9.847-58.882c6.551,2.468,13.481,3.742,20.52,3.741    c3.41,0,6.846-0.297,10.274-0.897c15.477-2.711,28.972-11.286,37.999-24.147c14.829-21.127,13.765-48.711-0.66-68.49    C182.325,41.917,217.794,30,256,30s73.675,11.917,102.908,32.213c-14.425,19.779-15.489,47.363-0.66,68.491    c9.027,12.86,22.522,21.436,37.999,24.146c3.43,0.601,6.863,0.897,10.274,0.897c7.039,0,13.968-1.274,20.52-3.742    c6.375,18.467,9.848,38.276,9.848,58.882v30.435H75.111z" fill="#FFFFFF"/>
	</g>
</g>
<g>
	<g>
		<path d="M256,93.914c-32.437,0-58.825,26.389-58.825,58.825c0,32.436,26.389,58.825,58.825,58.825    c32.436,0,58.825-26.389,58.825-58.825C314.825,120.303,288.437,93.914,256,93.914z M256,181.564    c-15.895,0-28.825-12.931-28.825-28.825c0-15.894,12.931-28.825,28.825-28.825s28.825,12.931,28.825,28.825    C284.825,168.633,271.895,181.564,256,181.564z" fill="#FFFFFF"/>
	</g>
</g>
<g>
</g>
<g>
</g>
<g>
</g>
<g>
</g>
<g>
</g>
<g>
</g>
<g>
</g>
<g>
</g>
<g>
</g>
<g>
</g>
<g>
</g>
<g>
</g>
<g>
</g>
<g>
</g>
<g>
</g>
</svg>
