<?xml version="1.0" encoding="iso-8859-1"?>
<!-- Generator: Adobe Illustrator 19.0.0, SVG Export Plug-In . SVG Version: 6.00 Build 0)  -->
<svg xmlns="http://www.w3.org/2000/svg" xmlns:xlink="http://www.w3.org/1999/xlink" version="1.1" id="Capa_1" x="0px" y="0px" viewBox="0 0 482.012 482.012" style="enable-background:new 0 0 482.012 482.012;" xml:space="preserve" width="512px" height="512px">
<g>
	<rect x="137.357" y="235" width="40" height="40" fill="#FFFFFF"/>
	<rect x="137.357" y="75" width="40" height="40" fill="#FFFFFF"/>
	<rect x="137.357" y="155" width="40" height="40" fill="#FFFFFF"/>
	<rect x="217.357" y="75" width="40" height="40" fill="#FFFFFF"/>
	<rect x="217.357" y="155" width="40" height="40" fill="#FFFFFF"/>
	<path d="M317.357,282.734c-19.299,0-35,15.701-35,35s15.701,35,35,35s35-15.701,35-35S336.656,282.734,317.357,282.734z" fill="#FFFFFF"/>
	<path d="M332.357,216.539V0h-270v445h225.561l29.439,37.012l80.267-100.916c14.414-18.226,22.032-40.137,22.032-63.363   C419.656,266.422,381.679,223.817,332.357,216.539z M92.357,415V30h210v186.539c-49.321,7.279-87.298,49.883-87.298,101.195   c0,23.227,7.619,45.138,22.058,63.396L264.057,415H92.357z M374.118,362.455l-56.762,71.364l-56.734-71.331   c-10.182-12.874-15.563-28.349-15.563-44.753c0-39.865,32.433-72.298,72.298-72.298s72.299,32.433,72.299,72.298   C389.656,334.137,384.274,349.613,374.118,362.455z" fill="#FFFFFF"/>
</g>
<g>
</g>
<g>
</g>
<g>
</g>
<g>
</g>
<g>
</g>
<g>
</g>
<g>
</g>
<g>
</g>
<g>
</g>
<g>
</g>
<g>
</g>
<g>
</g>
<g>
</g>
<g>
</g>
<g>
</g>
</svg>
