<?xml version="1.0" encoding="iso-8859-1"?>
<!-- Generator: Adobe Illustrator 19.0.0, SVG Export Plug-In . SVG Version: 6.00 Build 0)  -->
<svg xmlns="http://www.w3.org/2000/svg" xmlns:xlink="http://www.w3.org/1999/xlink" version="1.1" id="Capa_1" x="0px" y="0px" viewBox="0 0 512 512" style="enable-background:new 0 0 512 512;" xml:space="preserve" width="512px" height="512px">
<g>
	<g>
		<path d="M439.612,307.995c-27.891,27.891-47.181,56.822-60.538,83.413V189.419c18.93-6.3,32.624-24.171,32.624-45.19V71.854    c0-21.019-13.694-38.889-32.624-45.19V0h-30v26.664c-18.93,6.3-32.624,24.171-32.624,45.19v72.375    c0,21.019,13.694,38.889,32.624,45.19v201.99c-13.356-26.591-32.647-55.523-60.538-83.414l-31.167-31.167L284.059,482h-56.117    l26.689-205.172l-31.167,31.167c-27.891,27.891-47.182,56.823-60.538,83.414v-201.99c18.93-6.3,32.624-24.171,32.624-45.19V71.854    c0-21.019-13.694-38.889-32.624-45.19V0h-30v26.664c-18.93,6.3-32.624,24.171-32.624,45.19v72.375    c0,21.019,13.694,38.889,32.624,45.19v201.989c-13.356-26.591-32.647-55.522-60.538-83.413L41.22,276.828L71.813,512h368.374    l30.592-235.172L439.612,307.995z M98.164,482l-14.95-114.924c20.137,28.32,31.807,55.409,38.47,75.681    c5.252,15.978,8.063,29.598,9.561,39.243H98.164z M147.926,161.853c-9.718,0-17.624-7.906-17.624-17.624V71.854    c0-9.718,7.906-17.624,17.624-17.624c9.718,0,17.624,7.906,17.624,17.624v72.375C165.55,153.947,157.644,161.853,147.926,161.853z     M197.688,482h-33.082c1.498-9.646,4.309-23.266,9.561-39.243c6.664-20.271,18.333-47.36,38.471-75.681L197.688,482z M314.312,482    l-14.95-114.924c20.137,28.32,31.807,55.409,38.471,75.681c5.252,15.978,8.063,29.598,9.561,39.243H314.312z M364.074,161.853    c-9.718,0-17.624-7.906-17.624-17.624V71.854c0-9.718,7.906-17.624,17.624-17.624c9.718,0,17.624,7.906,17.624,17.624v72.375    C381.698,153.947,373.792,161.853,364.074,161.853z M413.836,482h-33.094c3.541-22.766,14.487-67.877,48.053-114.994L413.836,482z    " fill="#283618"/>
	</g>
</g>
<g>
</g>
<g>
</g>
<g>
</g>
<g>
</g>
<g>
</g>
<g>
</g>
<g>
</g>
<g>
</g>
<g>
</g>
<g>
</g>
<g>
</g>
<g>
</g>
<g>
</g>
<g>
</g>
<g>
</g>
</svg>
