<?xml version="1.0" encoding="utf-8"?>
<!-- Generator: Adobe Illustrator 23.0.1, SVG Export Plug-In . SVG Version: 6.00 Build 0)  -->
<svg version="1.1" id="Layer_1" xmlns="http://www.w3.org/2000/svg" xmlns:xlink="http://www.w3.org/1999/xlink" x="0px" y="0px"
	 viewBox="0 0 512 512" style="enable-background:new 0 0 512 512;" xml:space="preserve">
<style type="text/css">
	.st0{fill:#283618;}
</style>
<g>
	<g>
		<path class="st0" d="M256,485.8c126.6,0,229.8-103.2,229.8-229.8S382.6,26.2,256,26.2S26.2,129.4,26.2,256S129.4,485.8,256,485.8z
			 M256,58.3c108.8,0,197.7,88.5,197.7,197.7S365.1,453.7,256,453.7S58.3,364.8,58.3,256S147.2,58.3,256,58.3L256,58.3z"/>
		<path class="st0" d="M150,269.9h211.5c9.1,0,16.3-7.1,16.3-16.3c0-9.1-7.1-16.3-16.3-16.3H150c-9.1,0-16.3,7.1-16.3,16.3
			S141.3,269.9,150,269.9z"/>
	</g>
</g>
</svg>
