<?xml version="1.0" encoding="iso-8859-1"?>
<!-- Generator: Adobe Illustrator 19.0.0, SVG Export Plug-In . SVG Version: 6.00 Build 0)  -->
<svg xmlns="http://www.w3.org/2000/svg" xmlns:xlink="http://www.w3.org/1999/xlink" version="1.1" id="Capa_1" x="0px" y="0px" viewBox="0 0 512 512" style="enable-background:new 0 0 512 512;" xml:space="preserve" width="512px" height="512px">
<g>
	<g>
		<path d="M397.993,271h79.582v-30h-79.582c-1.59-15.16-5.564-29.619-11.536-42.999l98.746-57.011l-15-25.98l-98.789,57.036    c-8.788-12.047-19.412-22.672-31.459-31.459l39.824-68.977l-25.98-15l-39.798,68.933c-13.38-5.972-27.839-9.946-42.999-11.536V0    h-30v114.007c-15.16,1.59-29.619,5.564-42.999,11.536l-39.8-68.933l-25.98,15l39.824,68.977    c-12.047,8.788-22.671,19.412-31.459,31.459l-98.79-57.036l-15,25.98l98.746,57.011c-5.972,13.38-9.946,27.839-11.536,42.999    H34.425v30h79.583c1.59,15.16,5.564,29.619,11.536,42.999L26.797,371.01l15,25.98l98.79-57.036    c8.788,12.047,19.411,22.671,31.459,31.459l-39.824,68.977l25.98,15l39.799-68.933c13.38,5.972,27.839,9.946,42.999,11.536V512h30    V397.992c15.16-1.59,29.619-5.564,42.999-11.536l39.799,68.933l25.98-15l-39.824-68.977c12.048-8.788,22.671-19.411,31.459-31.459    l98.789,57.036l15-25.98l-98.746-57.011C392.429,300.619,396.403,286.16,397.993,271z M256,368.779    c-62.187,0-112.779-50.593-112.779-112.779c0-62.187,50.593-112.78,112.779-112.78c62.187,0,112.78,50.593,112.78,112.78    S318.187,368.779,256,368.779z" fill="#FFFFFF"/>
	</g>
</g>
<g>
</g>
<g>
</g>
<g>
</g>
<g>
</g>
<g>
</g>
<g>
</g>
<g>
</g>
<g>
</g>
<g>
</g>
<g>
</g>
<g>
</g>
<g>
</g>
<g>
</g>
<g>
</g>
<g>
</g>
</svg>
