<?xml version="1.0" encoding="iso-8859-1"?>
<!-- Generator: Adobe Illustrator 19.0.0, SVG Export Plug-In . SVG Version: 6.00 Build 0)  -->
<svg xmlns="http://www.w3.org/2000/svg" xmlns:xlink="http://www.w3.org/1999/xlink" version="1.1" id="Capa_1" x="0px" y="0px" viewBox="0 0 512 512" style="enable-background:new 0 0 512 512;" xml:space="preserve" width="512px" height="512px">
<g>
	<g>
		<path d="M512,169.815l-0.01-0.59c-1.36-34.42-30.11-65.69-80.95-88.06c-47.22-20.77-109.39-32.21-175.04-32.21    c-66.44,0-129.13,11.68-176.54,32.88C28.22,104.755,0,136.685,0,171.755v85.45h70.43l-32.6,50.97v154.87h436.34v-154.87    l-32.6-50.97H512V169.815z M91.71,109.225c43.64-19.52,101.98-30.27,164.29-30.27c61.59,0,119.46,10.54,162.96,29.67    c34.07,14.99,55.88,33.96,61.58,53.12H371.72v-9.63l-11.61-2.7c-32.83-7.61-68.11-11.48-104.86-11.48    c-36.13,0-70.88,3.75-103.3,11.13l-11.67,2.66v10.02H31.5C37.12,142.835,58.37,124.135,91.71,109.225z M30,227.205v-35.46h110.28    v35.46H30z M444.17,316.955v116.09H67.83v-116.09l38.22-59.75h64.23v-81.36c26.88-5.25,55.4-7.91,84.97-7.91    c30.15,0,59.18,2.76,86.47,8.2v81.07h64.23L444.17,316.955z M482,227.205H371.72v-35.46H482V227.205z" fill="#283618"/>
	</g>
</g>
<g>
	<g>
		<path d="M256,238.415c-45.67,0-82.82,37.16-82.82,82.83c0,45.66,37.15,82.82,82.82,82.82c45.67,0,82.82-37.16,82.82-82.82    C338.82,275.575,301.67,238.415,256,238.415z M256,374.065c-29.13,0-52.82-23.7-52.82-52.82c0-29.13,23.69-52.83,52.82-52.83    s52.82,23.7,52.82,52.83C308.82,350.365,285.13,374.065,256,374.065z" fill="#283618"/>
	</g>
</g>
<g>
</g>
<g>
</g>
<g>
</g>
<g>
</g>
<g>
</g>
<g>
</g>
<g>
</g>
<g>
</g>
<g>
</g>
<g>
</g>
<g>
</g>
<g>
</g>
<g>
</g>
<g>
</g>
<g>
</g>
</svg>
