<?xml version="1.0" encoding="iso-8859-1"?>
<!-- Generator: Adobe Illustrator 19.0.0, SVG Export Plug-In . SVG Version: 6.00 Build 0)  -->
<svg xmlns="http://www.w3.org/2000/svg" xmlns:xlink="http://www.w3.org/1999/xlink" version="1.1" id="Capa_1" x="0px" y="0px" viewBox="0 0 512 512" style="enable-background:new 0 0 512 512;" xml:space="preserve" width="512px" height="512px">
<g>
	<g>
		<circle cx="358.84" cy="252.089" r="15" fill="#FFFFFF"/>
	</g>
</g>
<g>
	<g>
		<path d="M176.452,184.82l-0.039-8.992c19.411-5.541,36.958-16.672,50.34-32.12c16.438-18.977,25.49-43.269,25.49-68.403V36.974    l-79.015,7.044c-17.803,1.587-34.415,9.296-47.107,21.423c-12.695-12.128-29.308-19.836-47.113-21.424L0,36.974v38.332    c0,25.137,9.055,49.432,25.496,68.409c13.385,15.449,30.935,26.579,50.35,32.118l-0.104,23.988    c0,100.704,68.744,187.697,165.25,211.666c0.04,16.467,3.064,33.852,10.974,51.1l5.704,12.438l12.908-4.541    c29.736-10.46,54.09-30.257,71.551-57.906C440.96,390.27,512,301.872,512,199.82v-15H176.452z M359.505,376.197    c5.356-15.322,7.94-28.758,9.146-37.069c30.102-16.215,54.335-41.868,68.767-72.999l-27.217-12.617    c-12.671,27.332-34.659,49.457-61.916,62.301l-8.018,3.778l-0.559,8.846c-0.051,0.82-5.565,76.938-65.437,107.865    c-13.609-50.741,20.763-102.26,21.144-102.821l-12.393-8.451l-12.375-8.477c-1.252,1.829-19.207,28.534-26.558,64.742    c-81.033-22.096-138.349-96.064-138.349-181.41l0.214-48.968l-12.793-1.953c-17.407-2.657-33.386-11.498-44.992-24.895    C36.453,110.546,30,93.228,30,75.306v-5.538L76.344,73.9c15.222,1.357,29.03,9.975,36.936,23.052l0.394,0.648l13.681,18.218    l11.613-18.872c7.904-13.075,21.708-21.69,36.926-23.046l46.351-4.132v5.538c0,17.92-6.451,35.237-18.166,48.761    c-11.604,13.396-27.579,22.237-44.982,24.896l-12.791,1.955l0.279,63.903h334.821C475.57,288.033,427.407,350.96,359.505,376.197z    " fill="#FFFFFF"/>
	</g>
</g>
<g>
</g>
<g>
</g>
<g>
</g>
<g>
</g>
<g>
</g>
<g>
</g>
<g>
</g>
<g>
</g>
<g>
</g>
<g>
</g>
<g>
</g>
<g>
</g>
<g>
</g>
<g>
</g>
<g>
</g>
</svg>
