<?xml version="1.0" encoding="iso-8859-1"?>
<!-- Generator: Adobe Illustrator 19.0.0, SVG Export Plug-In . SVG Version: 6.00 Build 0)  -->
<svg xmlns="http://www.w3.org/2000/svg" xmlns:xlink="http://www.w3.org/1999/xlink" version="1.1" id="Capa_1" x="0px" y="0px" viewBox="0 0 512 512" style="enable-background:new 0 0 512 512;" xml:space="preserve" width="512px" height="512px">
<g>
	<g>
		<path d="M437.02,74.98C388.667,26.629,324.38,0,256,0S123.333,26.629,74.98,74.98C26.629,123.333,0,187.62,0,256    s26.629,132.667,74.98,181.02C123.333,485.371,187.62,512,256,512s132.667-26.629,181.02-74.98    C485.371,388.667,512,324.38,512,256S485.371,123.333,437.02,74.98z M311.033,70.497c1.552-8.897,8.981-17.978,22.1-27.046    c30.72,11.127,58.883,28.951,82.673,52.741c30.572,30.574,51.302,68.364,60.609,109.528c-10.637,1.184-22.281,0.32-33.655-0.535    c-23.081-1.735-46.95-3.527-63.974,12.153c-11.984,11.04-17.897,28.677-18.077,53.919c-0.362,51.151-6.675,89.192-18.759,113.064    c-13.249,26.171-29.494,26.171-34.833,26.171c-21.189,0-27.507-19.366-36.872-63.554c-1.807-8.528-3.676-17.347-5.887-26.021    c-5.156-20.228-22.202-32.645-37.241-43.6c-24.053-17.521-39.943-29.096-21.949-65.475c16.563-33.483,44.646-30.479,85.599-22.073    c24.299,4.988,49.428,10.146,62.415-8.587c8.726-12.588,5.137-26.119,0.59-35.253c-4.382-8.803-11.296-17.483-18.616-26.673    C322.609,103.504,308.387,85.649,311.033,70.497z M65.18,328.096c6.831,21.527,11.29,35.632,3.648,54.654    C43.584,345.641,30,301.867,30,256c0-60.367,23.508-117.12,66.194-159.806c0.754-0.754,1.521-1.487,2.284-2.229    c16.798,25.905,14.272,40.19,13.352,45.352c-2.623,14.724-13.491,27.978-24.997,42.011C70.582,201.148,52.162,223.614,52.162,256    C52.162,287.071,59.38,309.818,65.18,328.096z M415.806,415.806C373.12,458.492,316.367,482,256,482    s-117.12-23.508-159.806-66.194c-2.339-2.339-4.611-4.728-6.834-7.151c21.172-36.731,13.025-62.495,4.414-89.633    C88.331,301.868,82.162,282.425,82.162,256c0-21.66,13.537-38.17,27.87-55.65c23.805-29.034,53.075-64.744,11.433-125.998    C160.166,45.563,206.886,30,256,30c14.293,0,28.379,1.334,42.128,3.912c-9.183,9.755-14.684,20.166-16.65,31.428    c-4.965,28.446,14.539,52.933,30.211,72.609c5.289,6.64,10.285,12.912,13.538,18.307c2.899,4.808,3.269,7.063,3.309,7.708    c-4.41,2.028-21.459-1.47-31.736-3.58c-18.666-3.832-39.819-8.174-60.692-5.171c-26.003,3.743-45.46,18.321-57.83,43.33    c-12.808,25.895-14.343,47.731-4.692,66.756c8.158,16.083,22.88,26.807,35.869,36.268c12.007,8.746,23.348,17.007,25.834,26.761    c2.06,8.081,3.864,16.596,5.609,24.83c4.41,20.811,8.576,40.468,16.967,56.3c10.914,20.593,27.485,31.035,49.253,31.035    c18.258,0,43.766-7.395,61.599-42.622c14.197-28.045,21.597-70.573,21.993-126.401c0.079-11.17,1.601-25.801,8.402-32.066    c7.441-6.853,23.936-5.615,41.401-4.302c12.752,0.958,26.695,1.994,40.55,0.279C481.676,242.196,482,249.073,482,256    C482,316.367,458.492,373.12,415.806,415.806z" fill="#FFFFFF"/>
	</g>
</g>
<g>
</g>
<g>
</g>
<g>
</g>
<g>
</g>
<g>
</g>
<g>
</g>
<g>
</g>
<g>
</g>
<g>
</g>
<g>
</g>
<g>
</g>
<g>
</g>
<g>
</g>
<g>
</g>
<g>
</g>
</svg>
